<svg xmlns="http://www.w3.org/2000/svg" width="48" height="48" viewBox="0 0 48 48" version="1.1"><path d="M 0,4 H 44 V 48 H 0 z" fill="none"/><g transform="translate(5.6575,-2)"><path d="M 3.6666667,11.333333 C 1.6408333,11.333333 0.02864583,12.974167 0.02864583,15 L 0,44.333333 C 0,46.359167 1.6121875,48 3.6380208,48 l 22.0286462,0 c 2.025833,0 3.666666,-1.640833 3.666666,-3.666667 l -25.6666663,0 0,-33 z"/><path d="M 25.685,4 H 11.018333 C 8.9925,4 7.37,5.6408333 7.37,7.6666667 L 7.3516667,37 c 0,2.025833 1.6225,3.666667 3.6483333,3.666667 H 33.018333 C 35.044167,40.666667 36.685,39.025833 36.685,37 V 15 l -11,-11 z m 3.666667,29.333333 H 14.685 v -3.666666 h 14.666667 v 3.666666 z m 0,-7.333333 H 14.685 V 22.333333 H 29.351667 V 26 z m -5.5,-9.166667 V 6.75 L 33.935,16.833333 H 23.851667 z"/></g></svg>