<svg xmlns="http://www.w3.org/2000/svg" width="48" height="48" viewBox="0 0 48 48" version="1.1"><path d="M0 0h48v48h-48z" fill="none"/><path d="M 8 8 C 5.79 8 4.03125 9.79 4.03125 12 L 4 36 C 4 38.21 5.79 40 8 40 L 22.0625 40 C 22.030543 39.837219 22 39.672656 22 39.5 L 22 24.5 C 22 23.11875 23.08025 22 24.40625 22 L 32.46875 22 L 34.5 24 L 43.59375 24 C 43.7289 24 43.870956 24.030833 44 24.0625 L 44 16 C 44 13.79 42.21 12 40 12 L 24 12 L 20 8 L 8 8 z"/><path d="m 32,24 h -6 c -1.105,0 -1.99,0.895 -1.99,2 L 24,38 c 0,1.105 0.895,2 2,2 h 16 c 1.105,0 2,-0.895 2,-2 V 28 c 0,-1.105 -0.895,-2 -2,-2 h -8 l -2,-2 z"/></svg>