<svg xmlns="http://www.w3.org/2000/svg" width="48" height="48" viewBox="0 0 48 48" version="1.1"><path d="M0 0h48v48h-48z" fill="none"/><path d="M 24 8 C 19.58 8 16 11.58 16 16 C 16 20.41 19.58 24 24 24 C 28.42 24 32 20.41 32 16 C 32 11.58 28.42 8 24 8 z M 24 28 C 18.67 28 8 30.67 8 36 L 8 40 L 30 40 L 30 28.78125 C 27.800841 28.269516 25.650458 28 24 28 z"/><path d="m 42.285743,26.000001 h -8.571428 c -0.947143,0 -1.705715,0.895 -1.705715,1.999999 L 32,44.000001 38,41 44,44.000001 V 28 c 0,-1.104999 -0.767143,-1.999999 -1.714286,-1.999999 z" fill="#000" fill-opacity="1"/></svg>